<svg viewBox="0 0 136 32" xmlns="http://www.w3.org/2000/svg" xmlns:xlink="http://www.w3.org/1999/xlink" width="136.000000" height="32.000000" fill="none" customFrame="#000000">
	<g id="Group 10">
		<rect id="Rectangle" width="136.000000" height="32.000000" x="0.000000" y="0.000000" rx="16.000000" fill="rgb(255,62.3506,120.733)" />
		<rect id="Rectangle" width="136.000000" height="32.000000" x="0.000000" y="0.000000" rx="16.000000" stroke="rgb(150.96,150.96,150.96)" stroke-opacity="0" stroke-width="0" />
		<path id="Заказать" d="M28.3046 17.92C28.3046 19.32 27.6046 20.02 26.2046 20.02L22.5446 20.02C21.1446 20.02 20.4446 19.32 20.4446 17.92L20.4446 13.48C20.4446 12.08 21.1446 11.38 22.5446 11.38L26.2046 11.38C27.6046 11.38 28.3046 12.08 28.3046 13.48L28.3046 17.92ZM26.3846 13.72C26.3846 13.28 26.1646 13.06 25.7246 13.06L23.0246 13.06C22.5846 13.06 22.3646 13.28 22.3646 13.72L22.3646 17.68C22.3646 18.12 22.5846 18.34 23.0246 18.34L25.7246 18.34C26.1646 18.34 26.3846 18.12 26.3846 17.68L26.3846 13.72ZM33.7336 19.6C33.7336 19.8 33.6336 19.9 33.4336 19.9L32.1136 19.9C31.9136 19.9 31.8136 19.8 31.8136 19.6L31.8136 13.18L29.4136 13.18C29.2136 13.18 29.1136 13.08 29.1136 12.88L29.1136 11.8C29.1136 11.6 29.2136 11.5 29.4136 11.5L36.1336 11.5C36.3336 11.5 36.4336 11.6 36.4336 11.8L36.4336 12.88C36.4336 13.08 36.3336 13.18 36.1336 13.18L33.7336 13.18L33.7336 19.6ZM44.5622 11.5C44.7622 11.5 44.8622 11.6 44.8622 11.8L44.8622 19.6C44.8622 19.8 44.7622 19.9 44.5622 19.9L43.2422 19.9C43.0422 19.9 42.9422 19.8 42.9422 19.6L42.9422 13.18L39.2822 13.18L39.2822 19.6C39.2822 19.8 39.1822 19.9 38.9822 19.9L37.6622 19.9C37.4622 19.9 37.3622 19.8 37.3622 19.6L37.3622 11.8C37.3622 11.6 37.4622 11.5 37.6622 11.5L44.5622 11.5ZM48.5541 17.44L48.5541 19.6C48.5541 19.8 48.4541 19.9 48.2541 19.9L46.9341 19.9C46.7341 19.9 46.6341 19.8 46.6341 19.6L46.6341 11.8C46.6341 11.6 46.7341 11.5 46.9341 11.5L51.8541 11.5C53.2541 11.5 53.9541 12.2 53.9541 13.6L53.9541 15.34C53.9541 16.74 53.2541 17.44 51.8541 17.44L48.5541 17.44ZM48.5541 13.18L48.5541 15.76L51.3741 15.76C51.8141 15.76 52.0341 15.54 52.0341 15.1L52.0341 13.84C52.0341 13.4 51.8141 13.18 51.3741 13.18L48.5541 13.18ZM56.7225 18.16L56.1825 19.6C56.1425 19.688 56.0905 19.76 56.0265 19.816C55.9705 19.872 55.8825 19.9 55.7625 19.9L54.2625 19.9C54.0625 19.9 54.0025 19.8 54.0825 19.6L57.0225 11.8C57.1025 11.6 57.2625 11.5 57.5025 11.5L59.2425 11.5C59.3625 11.5 59.4505 11.528 59.5065 11.584C59.5705 11.64 59.6225 11.712 59.6625 11.8L62.6025 19.6C62.6825 19.8 62.6225 19.9 62.4225 19.9L60.9225 19.9C60.8025 19.9 60.7105 19.872 60.6465 19.816C60.5905 19.76 60.5425 19.688 60.5025 19.6L59.9625 18.16L56.7225 18.16ZM59.3625 16.48L58.4025 13.9L58.2825 13.9L57.3225 16.48L59.3625 16.48ZM63.5724 11.8C63.5724 11.6 63.6724 11.5 63.8724 11.5L68.3724 11.5C69.7724 11.5 70.4724 12.2 70.4724 13.6L70.4724 14.02C70.4724 14.308 70.4284 14.54 70.3404 14.716C70.2524 14.884 70.1564 15.016 70.0524 15.112C69.9244 15.224 69.7844 15.3 69.6324 15.34L69.6324 15.46C69.8724 15.508 70.0924 15.596 70.2924 15.724C70.4524 15.836 70.6004 15.996 70.7364 16.204C70.8804 16.404 70.9524 16.676 70.9524 17.02L70.9524 17.8C70.9524 19.2 70.2524 19.9 68.8524 19.9L63.8724 19.9C63.6724 19.9 63.5724 19.8 63.5724 19.6L63.5724 11.8ZM68.3724 18.22C68.8124 18.22 69.0324 18 69.0324 17.56L69.0324 17.02C69.0324 16.58 68.8124 16.36 68.3724 16.36L65.4924 16.36L65.4924 18.22L68.3724 18.22ZM65.4924 13.18L65.4924 14.68L67.8924 14.68C68.3324 14.68 68.5524 14.46 68.5524 14.02L68.5524 13.84C68.5524 13.4 68.3324 13.18 67.8924 13.18L65.4924 13.18ZM78.0038 14.44L74.7638 19.6C74.6998 19.688 74.6318 19.76 74.5598 19.816C74.4958 19.872 74.4038 19.9 74.2838 19.9L72.6638 19.9C72.4638 19.9 72.3638 19.8 72.3638 19.6L72.3638 11.8C72.3638 11.6 72.4638 11.5 72.6638 11.5L73.9838 11.5C74.1838 11.5 74.2838 11.6 74.2838 11.8L74.2838 16.96L74.4038 16.96L77.6438 11.8C77.7078 11.712 77.7718 11.64 77.8358 11.584C77.9078 11.528 78.0038 11.5 78.1238 11.5L79.7438 11.5C79.9438 11.5 80.0438 11.6 80.0438 11.8L80.0438 19.6C80.0438 19.8 79.9438 19.9 79.7438 19.9L78.4238 19.9C78.2238 19.9 78.1238 19.8 78.1238 19.6L78.1238 14.44L78.0038 14.44ZM85.5915 19.6C85.5915 19.8 85.4915 19.9 85.2915 19.9L83.9715 19.9C83.7715 19.9 83.6715 19.8 83.6715 19.6L83.6715 13.18L81.2715 13.18C81.0715 13.18 80.9715 13.08 80.9715 12.88L80.9715 11.8C80.9715 11.6 81.0715 11.5 81.2715 11.5L87.9915 11.5C88.1915 11.5 88.2915 11.6 88.2915 11.8L88.2915 12.88C88.2915 13.08 88.1915 13.18 87.9915 13.18L85.5915 13.18L85.5915 19.6ZM94.32 14.02C95.72 14.02 96.42 14.72 96.42 16.12L96.42 17.8C96.42 19.2 95.72 19.9 94.32 19.9L89.5201 19.9C89.32 19.9 89.22 19.8 89.22 19.6L89.22 11.8C89.22 11.6 89.32 11.5 89.5201 11.5L90.84 11.5C91.04 11.5 91.14 11.6 91.14 11.8L91.14 14.02L94.32 14.02ZM93.84 18.22C94.28 18.22 94.5 18 94.5 17.56L94.5 16.36C94.5 15.92 94.28 15.7 93.84 15.7L91.14 15.7L91.14 18.22L93.84 18.22Z" fill="rgb(255,255,255)" fill-rule="nonzero" />
		<g id="ic/goside">
			<rect id="bound" width="27.428572" height="24.000000" x="99.428589" y="4.000000" />
			<rect id="back" width="27.428572" height="24.000000" x="99.428589" y="4.000000" rx="12.000000" fill="rgb(255,62.3506,120.733)" />
			<path id="dropdown" d="M114.057 15.9999L110.672 13.2717C110.178 12.8736 110.175 12.1222 110.665 11.7199L110.913 11.517C111.28 11.216 111.808 11.2144 112.176 11.5131L117.622 15.9254C117.67 15.9638 117.67 16.0361 117.622 16.0745L112.275 20.4064C111.849 20.752 111.238 20.7501 110.814 20.402C110.247 19.9367 110.251 19.0678 110.822 18.6074L114.057 15.9999Z" fill="rgb(255,255,255)" fill-rule="evenodd" />
		</g>
	</g>
</svg>
