<svg viewBox="0 0 40 40" xmlns="http://www.w3.org/2000/svg" xmlns:xlink="http://www.w3.org/1999/xlink" width="40.000000" height="40.000000" fill="none" customFrame="#000000">
	<g id="ic/burger">
		<rect id="bound" width="40.000000" height="40.000000" x="0.000000" y="0.000000" />
		<rect id="back" width="40.000000" height="40.000000" x="0.000000" y="0.000000" rx="20.000000" fill="rgb(255,62.3506,120.733)" />
		<path id="icon" d="M28 12C28.5523 12 29 12.4477 29 13C29 13.5523 28.5523 14 28 14L12 14C11.4477 14 11 13.5523 11 13C11 12.4477 11.4477 12 12 12L28 12ZM20 19C20.5523 19 21 19.4477 21 20C21 20.5523 20.5523 21 20 21L12 21C11.4477 21 11 20.5523 11 20C11 19.4477 11.4477 19 12 19L20 19ZM25 27C25 26.4477 24.5523 26 24 26L12 26C11.4477 26 11 26.4477 11 27C11 27.5523 11.4477 28 12 28L24 28C24.5523 28 25 27.5523 25 27Z" fill="rgb(255,255,255)" fill-rule="evenodd" />
	</g>
</svg>
