<svg viewBox="0 0 119 32" xmlns="http://www.w3.org/2000/svg" xmlns:xlink="http://www.w3.org/1999/xlink" width="119.000000" height="32.000000" fill="none" customFrame="#000000">
	<g id="Group 10">
		<rect id="Rectangle" width="119.000000" height="32.000000" x="0.000000" y="0.000000" rx="16.000000" fill="rgb(255,62.3506,120.733)" />
		<rect id="Rectangle" width="119.000000" height="32.000000" x="0.000000" y="0.000000" rx="16.000000" stroke="rgb(150.96,150.96,150.96)" stroke-opacity="0" stroke-width="0" />
		<path id="Заказать" d="M20.0027 14.14C20.0027 14.428 19.9467 14.66 19.8347 14.836C19.7227 15.004 19.5987 15.136 19.4627 15.232C19.3027 15.344 19.1227 15.42 18.9227 15.46L18.9227 15.58C19.1467 15.628 19.3467 15.716 19.5227 15.844C19.6747 15.956 19.8107 16.116 19.9307 16.324C20.0587 16.524 20.1227 16.796 20.1227 17.14L20.1227 17.92C20.1227 19.32 19.4227 20.02 18.0227 20.02L14.7227 20.02C13.3227 20.02 12.6227 19.32 12.6227 17.92L12.6227 17.32C12.6227 17.12 12.7227 17.02 12.9227 17.02L14.2427 17.02C14.4427 17.02 14.5427 17.12 14.5427 17.32L14.5427 17.68C14.5427 18.12 14.7627 18.34 15.2027 18.34L17.5427 18.34C17.9827 18.34 18.2027 18.12 18.2027 17.68L18.2027 17.14C18.2027 16.7 17.9827 16.48 17.5427 16.48L15.8027 16.48C15.6027 16.48 15.5027 16.38 15.5027 16.18L15.5027 15.1C15.5027 14.9 15.6027 14.8 15.8027 14.8L17.4227 14.8C17.8627 14.8 18.0827 14.58 18.0827 14.14L18.0827 13.72C18.0827 13.28 17.8627 13.06 17.4227 13.06L15.3227 13.06C14.8827 13.06 14.6627 13.28 14.6627 13.72L14.6627 14.08C14.6627 14.28 14.5627 14.38 14.3627 14.38L13.0427 14.38C12.8427 14.38 12.7427 14.28 12.7427 14.08L12.7427 13.48C12.7427 12.08 13.4427 11.38 14.8427 11.38L17.9027 11.38C19.3027 11.38 20.0027 12.08 20.0027 13.48L20.0027 14.14ZM23.4929 18.16L22.9529 19.6C22.9129 19.688 22.8609 19.76 22.7969 19.816C22.7409 19.872 22.6529 19.9 22.5329 19.9L21.0329 19.9C20.8329 19.9 20.7729 19.8 20.8529 19.6L23.7929 11.8C23.8729 11.6 24.0329 11.5 24.2729 11.5L26.0129 11.5C26.1329 11.5 26.2209 11.528 26.2769 11.584C26.3409 11.64 26.3929 11.712 26.4329 11.8L29.3729 19.6C29.4529 19.8 29.3929 19.9 29.1929 19.9L27.6929 19.9C27.5729 19.9 27.4809 19.872 27.4169 19.816C27.3609 19.76 27.3129 19.688 27.2729 19.6L26.7329 18.16L23.4929 18.16ZM26.1329 16.48L25.1729 13.9L25.0529 13.9L24.0929 16.48L26.1329 16.48ZM32.2628 14.68L33.8828 14.68L35.4428 11.8C35.4908 11.712 35.5508 11.64 35.6228 11.584C35.7028 11.528 35.8028 11.5 35.9228 11.5L37.4228 11.5C37.5108 11.5 37.5748 11.528 37.6148 11.584C37.6548 11.64 37.6508 11.712 37.6028 11.8L35.5628 15.46L37.8428 19.6C37.8908 19.688 37.8948 19.76 37.8548 19.816C37.8148 19.872 37.7508 19.9 37.6628 19.9L36.1628 19.9C36.0428 19.9 35.9428 19.872 35.8628 19.816C35.7908 19.76 35.7308 19.688 35.6828 19.6L33.9428 16.36L32.2628 16.36L32.2628 19.6C32.2628 19.8 32.1628 19.9 31.9628 19.9L30.6428 19.9C30.4428 19.9 30.3428 19.8 30.3428 19.6L30.3428 11.8C30.3428 11.6 30.4428 11.5 30.6428 11.5L31.9628 11.5C32.1628 11.5 32.2628 11.6 32.2628 11.8L32.2628 14.68ZM40.6538 18.16L40.1138 19.6C40.0738 19.688 40.0218 19.76 39.9578 19.816C39.9018 19.872 39.8138 19.9 39.6938 19.9L38.1938 19.9C37.9938 19.9 37.9338 19.8 38.0138 19.6L40.9538 11.8C41.0338 11.6 41.1938 11.5 41.4338 11.5L43.1738 11.5C43.2938 11.5 43.3818 11.528 43.4378 11.584C43.5018 11.64 43.5538 11.712 43.5938 11.8L46.5338 19.6C46.6138 19.8 46.5538 19.9 46.3538 19.9L44.8538 19.9C44.7338 19.9 44.6418 19.872 44.5778 19.816C44.5218 19.76 44.4738 19.688 44.4338 19.6L43.8938 18.16L40.6538 18.16ZM43.2938 16.48L42.3338 13.9L42.2138 13.9L41.2538 16.48L43.2938 16.48ZM54.5238 14.14C54.5238 14.428 54.4678 14.66 54.3558 14.836C54.2438 15.004 54.1198 15.136 53.9838 15.232C53.8238 15.344 53.6438 15.42 53.4438 15.46L53.4438 15.58C53.6678 15.628 53.8678 15.716 54.0438 15.844C54.1958 15.956 54.3318 16.116 54.4518 16.324C54.5798 16.524 54.6438 16.796 54.6438 17.14L54.6438 17.92C54.6438 19.32 53.9438 20.02 52.5438 20.02L49.2438 20.02C47.8438 20.02 47.1438 19.32 47.1438 17.92L47.1438 17.32C47.1438 17.12 47.2438 17.02 47.4438 17.02L48.7638 17.02C48.9638 17.02 49.0638 17.12 49.0638 17.32L49.0638 17.68C49.0638 18.12 49.2838 18.34 49.7238 18.34L52.0638 18.34C52.5038 18.34 52.7238 18.12 52.7238 17.68L52.7238 17.14C52.7238 16.7 52.5038 16.48 52.0638 16.48L50.3238 16.48C50.1238 16.48 50.0238 16.38 50.0238 16.18L50.0238 15.1C50.0238 14.9 50.1238 14.8 50.3238 14.8L51.9438 14.8C52.3838 14.8 52.6038 14.58 52.6038 14.14L52.6038 13.72C52.6038 13.28 52.3838 13.06 51.9438 13.06L49.8438 13.06C49.4038 13.06 49.1838 13.28 49.1838 13.72L49.1838 14.08C49.1838 14.28 49.0838 14.38 48.8838 14.38L47.5638 14.38C47.3638 14.38 47.2638 14.28 47.2638 14.08L47.2638 13.48C47.2638 12.08 47.9638 11.38 49.3638 11.38L52.4238 11.38C53.8238 11.38 54.5238 12.08 54.5238 13.48L54.5238 14.14ZM58.014 18.16L57.474 19.6C57.434 19.688 57.382 19.76 57.318 19.816C57.262 19.872 57.174 19.9 57.054 19.9L55.554 19.9C55.354 19.9 55.294 19.8 55.374 19.6L58.314 11.8C58.394 11.6 58.554 11.5 58.794 11.5L60.534 11.5C60.654 11.5 60.742 11.528 60.798 11.584C60.862 11.64 60.914 11.712 60.954 11.8L63.894 19.6C63.974 19.8 63.914 19.9 63.714 19.9L62.214 19.9C62.094 19.9 62.002 19.872 61.938 19.816C61.882 19.76 61.834 19.688 61.794 19.6L61.254 18.16L58.014 18.16ZM60.654 16.48L59.694 13.9L59.574 13.9L58.614 16.48L60.654 16.48ZM67.4486 19.6C67.4486 19.8 67.3486 19.9 67.1486 19.9L65.8286 19.9C65.6286 19.9 65.5286 19.8 65.5286 19.6L65.5286 13.18L63.1286 13.18C62.9286 13.18 62.8286 13.08 62.8286 12.88L62.8286 11.8C62.8286 11.6 62.9286 11.5 63.1286 11.5L69.8486 11.5C70.0486 11.5 70.1486 11.6 70.1486 11.8L70.1486 12.88C70.1486 13.08 70.0486 13.18 69.8486 13.18L67.4486 13.18L67.4486 19.6ZM76.1772 14.02C77.5772 14.02 78.2772 14.72 78.2772 16.12L78.2772 17.8C78.2772 19.2 77.5772 19.9 76.1772 19.9L71.3772 19.9C71.1772 19.9 71.0772 19.8 71.0772 19.6L71.0772 11.8C71.0772 11.6 71.1772 11.5 71.3772 11.5L72.6972 11.5C72.8972 11.5 72.9972 11.6 72.9972 11.8L72.9972 14.02L76.1772 14.02ZM75.6972 18.22C76.1372 18.22 76.3572 18 76.3572 17.56L76.3572 16.36C76.3572 15.92 76.1372 15.7 75.6972 15.7L72.9972 15.7L72.9972 18.22L75.6972 18.22Z" fill="rgb(255,255,255)" fill-rule="nonzero" />
		<g id="ic/goside">
			<rect id="bound" width="24.000000" height="24.000000" x="87.000000" y="4.000000" />
			<rect id="back" width="24.000000" height="24.000000" x="87.000000" y="4.000000" rx="12.000000" fill="rgb(255,62.3506,120.733)" />
			<path id="dropdown" d="M99.8 15.9999L96.7915 13.229C96.3641 12.8353 96.3611 12.1614 96.7851 11.7639L96.9203 11.6372C97.3032 11.2782 97.8985 11.2763 98.2836 11.6329L102.938 15.9426C102.971 15.9735 102.971 16.0263 102.938 16.0572L98.3467 20.3085C97.9261 20.698 97.2758 20.696 96.8576 20.3039C96.3945 19.8697 96.3977 19.1336 96.8646 18.7036L99.8 15.9999Z" fill="rgb(255,255,255)" fill-rule="evenodd" />
		</g>
	</g>
</svg>
